<?xml version="1.0" encoding="UTF-8" standalone="no"?>
<svg width="1178" xmlns="http://www.w3.org/2000/svg" height="849">
 <g fill-rule="evenodd">
  <path d="m602 114l-2-8 10 28q12 28 12 30v1l1 1 1 1v3l1 1v1h-6v-2l-1-1v-1q0-2-8-24-6-22-8-30z" stroke="#dbe2e5" fill="#dbe2e5"/>
  <path d="m596 368v3l1 2v2h-1l-1-1h-2l-1-1-1-1-23-8q-23-8-50-13-28-5-26-29t5-47q4-23 27-23t54 4 26 13q-6 10-8 23-4 14-3 38 1 23 1 30 2 6 2 8z" stroke="#fcfcfc" fill="#fcfcfc"/>
  <path d="m585 382h1l1 1 1 1h3l1 1 1 1v1h-1v-1h-3l-1-1-2-1h-1q-1 0-11-4-11-4-38-10-26-6-56-8-30-4-68-3l-38 1h-11 2l1-1h3l3-1 22-2q23-2 53-2t55 4q24 4 50 12 25 8 28 10 4 2 5 2z" stroke="#103d5f" fill="#103d5f"/>
  <path d="m729 435l11 5 2 1 1 1h3l1 1 1 1h-3l-3-1q-4-1-10-2-7-1-14-5-8-4-11-8t-4-10q-1-7 0-7t3 4 7 9q5 6 16 11z" stroke="#e6eaed" fill="#e6eaed"/>
  <path d="m284 314h-1v1h-1v1h-1v1h-1v1h-1l-1 1h-1v-2h2v-1l1-1v-1h1v-1h1v-1l13-12q12-12 25-20 14-8 30-13 17-5 17-4t-17 9q-18 8-37 21t-24 17-5 4z" stroke="#e8ecee" fill="#e8ecee"/>
  <path d="m266 362l2-12 1-4q1-5 1 24 0 30 2 43t3 15 0 2-5-12q-4-13-6-28 0-16 2-28z" stroke="#154163" fill="#154163"/>
  <path d="m514 186v2h-3v-2l-1-1v-9q-2-9 2 0 2 8 2 10z" stroke="#c9d3da" fill="#c9d3da"/>
  <path d="m602 75v-3l20 46q22 46 22 47v1l1 2 1 1v3h-5l-3-1h-3v-1l-1-1v-1q0-2-16-44l-14-43-1-1q-1-2-1-5z" stroke="#e9edef" fill="#e9edef"/>
  <path d="m592 142l-6-27 10 25q10 26 11 27l1 1v3l1 1v1h-3l-4 1-1-1-1-1v-2q0-2-8-28z" stroke="#e3e8eb" fill="#e3e8eb"/>
  <path d="m740 364h-4l-1-1-1-1h-1v-1h-1v-1l-2-4q-2-3-1-8 1-4 2-7 2-3 4-3 2-2 7-1 4 1 7 5 3 3 2 10-1 6-4 9t-7 3z" stroke="#204b6b" fill="#204b6b"/>
  <path d="m744 403v1h2v1h1v1h3v2h-2l-2-1-3-1h-1q-2 0-3-1t-5-4-7-7l-3-4v-1l1-1 1-2 4-4q5-2 17-5t28-3-7 6q-24 4-28 6-5 2-5 6 1 4 5 8 4 3 4 3z" stroke="#e8ecef" fill="#e8ecef"/>
  <path d="m573 176v1h-1l-1 1h-5v-6l-2-16q-2-17 3 0 5 18 6 20z" stroke="#dee4e7" fill="#dee4e7"/>
  <path d="m345 477l-3 1h-4q-3 0-16 4-14 2-12 2l3-2h2l14-4q14-4 17-5 2 0 2 2t-3 2z" stroke="#cfd8de" fill="#cfd8de"/>
  <path d="m736 333q4-1 9-1 5 2 8 6t4 10q1 7-1 10 0 2-4 5-3 3-9 4t-8-1q-2 0-5-5-4-4-4-11t3-11q2-4 7-6zm4 31h-4l-1-1-1-1h-1v-1h-1v-1l-2-4q-2-3-1-8 1-4 2-7 2-3 4-3 2-2 7-1 4 1 7 5 3 3 2 10-1 6-4 9t-7 3z" stroke="#e6ebed" fill="#e6ebed"/>
  <path d="m655 420h2l3 1 4 1h-12q-7 0-15-1t-12-5q-5-4-10-16t-11-39-6-41q0-13 6-22l5-8v-1h1l3-3q3-3-2 6t-7 14q0 4 0 16 2 12 8 38t12 37q4 11 11 15 6 4 12 6t8 2z" stroke="#eaeef0" fill="#eaeef0"/>
  <path d="m934 402h1l1 1 2 1h3l1 1 1 1h-3l-3-1-3-1h-2q-3 0-42-8t-64-8-42 1l-17 1-3 1-2 1h-4v-1h1v-1h2l1-1 1-1h2l9-4q9-4 13-4t28-1l24-1h-3l-1-1-1-1h-2l-21-9q-21-9 10 1 31 8 71 21t42 13z" stroke="#ecf0f2" fill="#ecf0f2"/>
  <path d="m846 360h1l1 1 2 1h3v2h-2l-1-1-2-1h-2l-2-1q-1-1-42-15t-44-16l-2-4-3-4q-3-4 17 5 21 9 48 21t28 12z" stroke="#e7ebee" fill="#e7ebee"/>
  <path d="m534 182v2h-2q-2 0-2-2v-3l-2-9q0-10 2 0 4 10 4 12z" stroke="#cad4da" fill="#cad4da"/>
  <path d="m206 530h-1v1h-1v1h-1v1h-1v1h-1v1h-1v1h-2v-1h1v-1h1v-1h1v-1h1v-1h1v-1h1v-1l19-18q18-19 37-33t38-26q19-10 38-18 20-8 40-14 19-4 36-6t40-2q24 0 40 3 15 3-15 4t-58 7q-28 4-57 14-28 10-56 24t-52 30-35 26q-12 10-13 10z" stroke="#f2f4f6" fill="#f2f4f6"/>
  <path d="m589 174v1h-1l-2 1h-2v-1l-1-2-1-2-4-19q-4-19 3 0 7 20 8 22z" stroke="#dae1e5" fill="#dae1e5"/>
  <path d="m722 448h2l2 1 2 1h3-10q-5 0-13-1-9-1-45 1h-36 8l17-4q18-4 27-8t12-7 5 2 11 9 11 5 4 1z" stroke="#e9edf0" fill="#e9edf0"/>
  <path d="m0 424v-424h1178v849h-1178v-425zm1167 55l1 1h1v1h1v1l1 1 1 1v4h-1v1h-1v1h-8q-5 0-46-13-42-13-126-41-84-26-114-34-29-6-40-7l-12-1v1h1v1h1v1h1v1h1v1h1v1h1l17 21q17 21 33 44t17 25l1 1v6h-3l-3-1h-1q-1 0-29-13t-52-21-32-8q-9 0-30 2t-43 2q-22-2-64-2t-80-1-85-3q-48 0-54 0-5 1-7 20-1 18-7 44-6 25-14 49l-8 24-1 1-1 2v2l-1 1-1 1v-14q0-13-2-26-2-12-8-26-6-15-13-25-7-11-10-12t-19-2q-17-1-28 1t-12 22v19l-1 2v2h-1l-1-1h-1v-1h-1v-1h-1l-6-4q-6-4-12-6-5-2-12-1t-15 5q-9 4-16 12-7 7-9 10t-2 16q0 14 8 67t8 86q2 33-1 61t-4 36-2 10l-1 3v5l-1 2-1 2v-14q0-15-2-40-2-26-6-60-4-33-12-63t-17-55q-9-24-21-45t-25-37-27-30q-15-14-30-24-15-12-36-23l-22-11-1-1-1-1h-3l-1-1-1-1h8l20 5q20 5 37 11 16 8 29 16t23 16q10 9 20 19t11 11q1 2 2 2h1v1h1v1h3l1-1 1-1h1v-1h1v-1q0-1 2-3 0-2 6-22 4-20 16-55t13-52-1-28l-2-11-1-1-1-1v-2h15q15-1 19-2 4-2 21-27 17-26 31-39 13-13 31-26t41-25q24-12 54-25t58-23q29-10 44-19t26-17q10-10 19-20 9-11 15-26 6-14 9-29t2-31 14 1q15 18 33 45 18 28 36 60 16 31 22 43 6 11 17 18t20 14 9 8 8 9q8 7 16 18 6 10 13 21 6 11 17 19 10 10 29 30t30 29 39 21q27 14 146 63t124 51q4 2 5 3z" stroke="#fefefe" fill="#fefefe"/>
  <path d="m396 520l-4 24v4l-1 2-1 1v-5l1-3q1-3 2-16t2-41q0-27 3-28 4-1 3 19t-5 43z" stroke="#e4e9ec" fill="#e4e9ec"/>
  <path d="m226 397l2-2 2 19q2 18 4 22 0 4 1 6l1 2v3l1 1 1 2v1t0 1q0 2-1 0l-1-3h-1v-1h-1v-2l-1-1-1-1v-1q0-1-2-5-2-5-4-21l-2-16v-1q0-1 2-3z" stroke="#1a4465" fill="#1a4465"/>
  <path d="m595 381l1 1h2l1 1 1 1v3h-1v1h-1l-2-1h-1v-1h-2l-1-1-1-1h-3l-1-1-1-1h-1q-1 0-5-2-3-2-28-10-26-8-50-12-25-4-55-4t-53 2l-22 2-3 1h-3v-1h4l2-1 2-1h2q3 0 4-1h1l27-3q26-4 50-3t48 5q25 4 48 11 22 7 31 11t10 5z" stroke="#e5eaec" fill="#e5eaec"/>
  <path d="m384 466l2-2 1 11q1 11 1 31t0 28v9l-1-8q-1-8-3-38t0-31z" stroke="#d0d9de" fill="#d0d9de"/>
  <path d="m195 477l8-28 3 17q4 17 4 18t1 2l1 2 1 2q1 3 2 4v1l-13 14q-12 14-13 15l-1 1v1h-1v1h-1v1l-1 1-1 1v1-7q0-3 2-11t9-36z" stroke="#f4f6f7" fill="#f4f6f7"/>
  <path d="m482 340v5l-24-1q-23 0-24-20 0-20 2-43t7-24 29-3q25-2 22 6-4 8-8 24-4 17-4 34 0 18 0 22z" stroke="#fafbfb" fill="#fafbfb"/>
  <path d="m764 259v4q0 1-1 1-1 2-7 2t-12-1l-7-1-2-1-2-1h-3v-1h-1v-1h11q10 0 12-2t2-9 0-10q-1-3 4 6 6 8 6 9t0 5z" stroke="#eaeef0" fill="#eaeef0"/>
  <path d="m704 307l25 11h2l1 1h1v1l-1 1v1h-1l-5 7q-6 7-8 13-2 7-1 16 1 8 1 11 2 3 2 5v1h-2q-1 1-16 5-16 4-24 6-7 2-8 0-2-2-6-12-4-11-4-27t0-21q2-5 6-14 4-8 9-12t29 7z" stroke="#fbfbfc" fill="#fbfbfc"/>
  <path d="m694 259l1 1h4l1 1 2 1h1-8l-3-1q-3-1-35-5-32-6-82-10-50-6-103-6h-56v-1h1v-1h5l24-4q23-4 36-6 13 0 48 0 36 0 64 4 29 4 43 8t35 11 22 8z" stroke="#f4f5f7" fill="#f4f5f7"/>
  <path d="m652 280l17 10 1 1 1 1h1l1 1 1 1h-2l-2 1q-2 1-7 4t-8 10-4 19q-1 11 1 17 0 6 7 26 6 21-7 27-12 6-16 2t-9-14-9-21q-2-11-2-31 0-21 2-32 2-10 8-20 4-10 7-11 2-1 19 9z" stroke="#fafbfb" fill="#fafbfb"/>
  <path d="m371 294l4-15h1l-1 11q-1 12-1 36v25l1 1h3q3 1 3 2v1h-1q-1 1-4 1h-2l-2 1-2 1h-4v1l-1 1h-2 11l22 1h23q0 1-9 1h-9l5 1 4 1 10 2q11 2 10 2-2 0-2 1v1h-1q-1 0-3-1-3-1-26-1l-22-1v3q0 2 2 10 0 8-4-2-4-9-6-9-3-1-20 3l-18 4h-8v-4h1v-1h1v-1h2l1-1q1-1 3-1 2-2 20-8 17-6 17-28 1-22 4-38z" stroke="#133f61" fill="#133f61"/>
  <path d="m1167 479l1 1h1v1h1v1l1 1 1 1v4h-1v1h-1v1h-8q-5 0-46-13-42-13-126-41-84-26-114-34-29-6-40-7l-12-1v1h1v1h1v1h1v1h1v1h1v1h1l17 21q17 21 33 44t17 25l1 1v6h-3l-3-1h-1q-1 0-29-13t-52-21-32-8q-9 0-30 2t-43 2q-22-2-64-2t-80-1-85-3q-48 0-54 0-5 1-7 20-1 18-7 44-6 25-14 49l-8 24-1 1-1 2v2l-1 1-1 1v-14q0-13-2-26-2-12-8-26-6-15-13-25-7-11-10-12t-19-2q-17-1-28 1t-12 22v19l-1 2v2h-1l-1-1h-1v-1h-1v-1h-1l-6-4q-6-4-12-6-5-2-12-1t-15 5q-9 4-16 12-7 7-9 10t-2 16q0 14 8 67t8 86q2 33-1 61t-4 36-2 10l-1 3v5l-1 2-1 2v-14q0-15-2-40-2-26-6-60-4-33-12-63t-17-55q-9-24-21-45t-25-37-27-30q-15-14-30-24-15-12-36-23l-22-11-1-1-1-1h-3l-1-1-1-1h8l20 5q20 5 37 11 16 8 29 16t23 16q10 9 20 19t11 11q1 2 2 2h1v1h1v1h3l1-1 1-1h1v-1h1v-1q0-1 2-3 0-2 6-22 4-20 16-55t13-52-1-28l-2-11-1-1-1-1v-2h15q15-1 19-2 4-2 21-27 17-26 31-39 13-13 31-26t41-25q24-12 54-25t58-23q29-10 44-19t26-17q10-10 19-20 9-11 15-26 6-14 9-29t2-31 14 1q15 18 33 45 18 28 36 60 16 31 22 43 6 11 17 18t20 14 9 8 8 9q8 7 16 18 6 10 13 21 6 11 17 19 10 10 29 30t30 29 39 21q27 14 146 63t124 51q4 2 5 3zm-563-432v-3l18 32q18 31 32 58 14 28 14 30 2 3 2 4v2l1 1 1 1v3l1 1v1h-1l-1-1h-4l-1-1-2-1-1-1q-1-1-9-21-8-19-28-60-20-42-22-45zm-2 28v-3l20 46q22 46 22 47v1l1 2 1 1v3h-5l-3-1h-3v-1l-1-1v-1q0-2-16-44l-14-43-1-1q-1-2-1-5zm0 39l-2-8 10 28q12 28 12 30v1l1 1 1 1v3l1 1v1h-6v-2l-1-1v-1q0-2-8-24-6-22-8-30zm-10 28l-6-27 10 25q10 26 11 27l1 1v3l1 1v1h-3l-4 1-1-1-1-1v-2q0-2-8-28zm-3 32v1h-1l-2 1h-2v-1l-1-2-1-2-4-19q-4-19 3 0 7 20 8 22zm-16 2v1h-1l-1 1h-5v-6l-2-16q-2-17 3 0 5 18 6 20zm-39 6v2h-2q-2 0-2-2v-3l-2-9q0-10 2 0 4 10 4 12zm-20 4v2h-3v-2l-1-1v-9q-2-9 2 0 2 8 2 10zm180 73l1 1h4l1 1 2 1h1-8l-3-1q-3-1-35-5-32-6-82-10-50-6-103-6h-56v-1h1v-1h5l24-4q23-4 36-6 13 0 48 0 36 0 64 4 29 4 43 8t35 11 22 8zm70 0v4q0 1-1 1-1 2-7 2t-12-1l-7-1-2-1-2-1h-3v-1h-1v-1h11q10 0 12-2t2-9 0-10q-1-3 4 6 6 8 6 9t0 5zm-168 109v3l1 2v2h-1l-1-1h-2l-1-1-1-1-23-8q-23-8-50-13-28-5-26-29t5-47q4-23 27-23t54 4 26 13q-6 10-8 23-4 14-3 38 1 23 1 30 2 6 2 8zm-114-28v5l-24-1q-23 0-24-20 0-20 2-43t7-24 29-3q25-2 22 6-4 8-8 24-4 17-4 34 0 18 0 22zm-57 3v1h-3q-3 0-24 4l-22 4h-1 3q3 1 3 2v1l27-3q26-4 50-3t48 5q25 4 48 11 22 7 31 11t10 5l1 1h2l1 1 1 1v3h-1v1h-3 1l1 1 1 1h1l-1 1-1 1h-7l-1-1q-2-1-18-5-16-6-47-12t-69-10l-37-3q0 1-9 1h-9l5 1 4 1 10 2q11 2 10 2-2 0-2 1v1l3 1q3 1 5 3 2 3 2 1 1-3 24 6 24 9 28 11 5 2 6 2h2l1 1 1 1h2l1 1 1 1h-7l-9-1q-9-1-38 0-28 1-50 4-23 3-45 10t-41 15q-18 8-38 21t-37 27l-17 15h-1v1h-1v1h-1v1h-1v1h-1l-1 1t0 1h-1l-13 14q-12 14-13 15l-1 1v1h-1v1h-1v1l-1 1-1 1v1-7q0-3 2-11t9-36l8-28v-1q1 0 1-1v-1h1q1 0 1-4l1-3v-1q1 0 7-15l6-15 1-1 1-1v-1l1-1 1-1v-3q0-1 2-3l2-2v-1t2-2q0-2 14-21t27-32 27-24l13-11h1l1-1 1-1h2v-1l1 1h1l2-2q2-2 22-12t25-12 7-2 1 2v3h1v-1l1-3q1-3 24-9t28-7 0 15q-5 15-5 22-2 6-1 23t1 20 1 4zm-141-29h-1v1h-1v1h-1v1h-1v1h-1l-1 1h-1v-2h2v-1l1-1v-1h1v-1h1v-1l13-12q12-12 25-20 14-8 30-13 17-5 17-4t-17 9q-18 8-37 21t-24 17-5 4zm443-26l-6 2h-1v1l1 1 1 1v1h2v1h1v1l18 6q18 6 19 7l2 1h4l2 1 1 1h2-13q-6 0-22-3-15-3-60-25t-42-22q2 0 32 7 29 7 46 10 18 3 19 5t-6 4zm-75-8l17 10 1 1 1 1h1l1 1 1 1h-2l-2 1q-2 1-7 4t-8 10-4 19q-1 11 1 17 0 6 7 26 6 21-7 27-12 6-16 2t-9-14-9-21q-2-11-2-31 0-21 2-32 2-10 8-20 4-10 7-11 2-1 19 9zm3 140h2l3 1 4 1h-12q-7 0-15-1t-12-5q-5-4-10-16t-11-39-6-41q0-13 6-22l5-8v-1h1l3-3q3-3-2 6t-7 14q0 4 0 16 2 12 8 38t12 37q4 11 11 15 6 4 12 6t8 2zm49-113l25 11h2l1 1h1v1l-1 1v1h-1l-5 7q-6 7-8 13-2 7-1 16 1 8 1 11 2 3 2 5v1h-2q-1 1-16 5-16 4-24 6-7 2-8 0-2-2-6-12-4-11-4-27t0-21q2-5 6-14 4-8 9-12t29 7zm142 53h1l1 1 2 1h3v2h-2l-1-1-2-1h-2l-2-1q-1-1-42-15t-44-16l-2-4-3-4q-3-4 17 5 21 9 48 21t28 12zm-110-27q4-1 9-1 5 2 8 6t4 10q1 7-1 10 0 2-4 5-3 3-9 4t-8-1q-2 0-5-5-4-4-4-11t3-11q2-4 7-6zm198 69h1l1 1 2 1h3l1 1 1 1h-3l-3-1-3-1h-2q-3 0-42-8t-64-8-42 1l-17 1-3 1-2 1h-4v-1h1v-1h2l1-1 1-1h2l9-4q9-4 13-4t28-1l24-1h-3l-1-1-1-1h-2l-21-9q-21-9 10 1 31 8 71 21t42 13zm-190 1v1h2v1h1v1h3v2h-2l-2-1-3-1h-1q-2 0-3-1t-5-4-7-7l-3-4v-1l1-1 1-2 4-4q5-2 17-5t28-3-7 6q-24 4-28 6-5 2-5 6 1 4 5 8 4 3 4 3zm22-4l2-1 10 1q10 1 36 21t27 20v1h1v1h2v1h1v1h1v1h1v1h2v-1h-1v-1h-1v-1h-1v-1h-1v-1h-1v-1h-1v-1h-1q0-1-2-2-2-2-5-5-4-4-11-12-6-7-10-10-4-4-4-5v-1h-1v-1h-1v-1h-1v-1h-1v-1h-1v-1h-1v-1l8 1q8 1 38 37t30 37v1h1v1h1v1l1 1 1 1v4h-6l-1-1-1-1h-1l-1-1q-1-1-11-9-9-8-27-20t-39-23-27-14l-5-3v-1h-1v-1h-1v-1h-1v-4q1-3 2-3 0 0 2-1zm-560 131h-1v1h-1v1h-1v1h-1v1h-1v1h-1v1h-2v-1h1v-1h1v-1h1v-1h1v-1h1v-1h1v-1l19-18q18-19 37-33t38-26q19-10 38-18 20-8 40-14 19-4 36-6t40-2q24 0 40 3 15 3-15 4t-58 7q-28 4-57 14-28 10-56 24t-52 30-35 26q-12 10-13 10zm523-95l11 5 2 1 1 1h3l1 1 1 1h-3l-3-1q-4-1-10-2-7-1-14-5-8-4-11-8t-4-10q-1-7 0-7t3 4 7 9q5 6 16 11zm-7 13h2l2 1 2 1h3-10q-5 0-13-1-9-1-45 1h-36 8l17-4q18-4 27-8t12-7 5 2 11 9 11 5 4 1zm-326 72l-4 24v4l-1 2-1 1v-5l1-3q1-3 2-16t2-41q0-27 3-28 4-1 3 19t-5 43zm-12-54l2-2 1 11q1 11 1 31t0 28v9l-1-8q-1-8-3-38t0-31zm-39 11l-3 1h-4q-3 0-16 4-14 2-12 2l3-2h2l14-4q14-4 17-5 2 0 2 2t-3 2z" stroke="#053559" fill="#053559"/>
  <path d="m727 288l-6 2h-1v1l1 1 1 1v1h2v1h1v1l18 6q18 6 19 7l2 1h4l2 1 1 1h2-13q-6 0-22-3-15-3-60-25t-42-22q2 0 32 7 29 7 46 10 18 3 19 5t-6 4z" stroke="#f2f4f6" fill="#f2f4f6"/>
  <path d="m206 442l1-3 2 18q3 18 3 22 2 4 2 6v2l1 1 1 2v3h1l-1 1t0 1h-1v-1q-1-1-2-4l-1-2-1-2q-1-1-1-2t-4-18l-3-17v-1q1 0 1-1v-1h1q1 0 1-4z" stroke="#1a4465" fill="#1a4465"/>
  <g stroke="#e8ecee" fill="#e8ecee">
   <path d="m585 384h1l2 1 1 1h3v1h3v1h2l1 1 1 1h1l-1 1-1 1h-7l-1-1q-2-1-18-5-16-6-47-12t-69-10l-37-3h-23l-22-1 38-1q38-1 68 3 30 2 56 8 27 6 38 10 10 4 11 4z"/>
   <path d="m604 47v-3l18 32q18 31 32 58 14 28 14 30 2 3 2 4v2l1 1 1 1v3l1 1v1h-1l-1-1h-4l-1-1-2-1-1-1q-1-1-9-21-8-19-28-60-20-42-22-45z"/>
  </g>
  <path d="m375 276v3l-4 15q-3 16-4 38 0 22-17 28-18 6-20 8-2 0-3 1l-1 1h-2v1h-1v1h-1v4h8l18-4q17-4 20-3 2 0 6 9 4 10 4 2-2-8-2-10v-3l22 1q23 0 26 1 2 1 3 1h1l3 1q3 1 5 3 2 3 2 1 1-3 24 6 24 9 28 11 5 2 6 2h2l1 1 1 1h2l1 1 1 1h-7l-9-1q-9-1-38 0-28 1-50 4-23 3-45 10t-41 15q-18 8-38 21t-37 27l-17 15h-1v1h-1v1h-1v1h-1v1h-2v-3l-1-2-1-1v-2q0-2-2-6 0-4-3-22l-2-18v-1q1 0 7-15l6-15 1-1 1-1v-1l1-1 1-1v-2l2 16q2 16 4 21 2 4 2 5v1l1 1 1 1v2h1v1h1v2h1l1-1-1-2-1-1v-3l-1-2q-1-2-1-6-2-4-4-22l-2-19v-1t2-2q0-2 14-21t27-32 27-24l13-11h1l1-1 1-1h2v-1l1 1v1l-1 1v4l-4 18q-4 19-3 34t4 26q4 10 4 11 1 0 1 1v1h1v1h1v2h1v1h1v2h2v-3l-1-2-1-1v-1q0-2-3-14-3-11-3-34 0-24 1-36l1-12 2-2q2-2 22-12t25-12 7-2 1 2zm-109 86l2-12 1-4q1-5 1 24 0 30 2 43t3 15 0 2-5-12q-4-13-6-28 0-16 2-28zm-28 91t1 0q0 1-1 1 0 0 0-1z" stroke="#fafbfb" fill="#fafbfb"/>
  <path d="m317 303v-1h1l-1 12q-1 12-1 36 0 23 3 34 3 12 3 14v1l1 1 1 2v2q1 3 0 3t-1-1l-1-1v-2h-1v-1h-1v-2h-1v-1h-1v-1q0-1-1-1 0-1-4-11-3-11-4-26t3-34l4-18v-4l1-1z" stroke="#113e60" fill="#113e60"/>
  <path d="m425 343v1h-3q-3 0-24 4l-22 4h-1l-1-1v-25q0-24 1-36l1-11v-1l1-3q1-3 24-9t28-7 0 15q-5 15-5 22-2 6-1 23t1 20 1 4z" stroke="#fafbfb" fill="#fafbfb"/>
  <path d="m766 399l2-1 10 1q10 1 36 21t27 20v1h1v1h2v1h1v1h1v1h1v1h2v-1h-1v-1h-1v-1h-1v-1h-1v-1h-1v-1h-1v-1h-1q0-1-2-2-2-2-5-5-4-4-11-12-6-7-10-10-4-4-4-5v-1h-1v-1h-1v-1h-1v-1h-1v-1h-1v-1h-1v-1l8 1q8 1 38 37t30 37v1h1v1h1v1l1 1 1 1v4h-6l-1-1-1-1h-1l-1-1q-1-1-11-9-9-8-27-20t-39-23-27-14l-5-3v-1h-1v-1h-1v-1h-1v-4q1-3 2-3 0 0 2-1z" stroke="#f4f6f7" fill="#f4f6f7"/>
 </g>
</svg>
